<svg xmlns="http://www.w3.org/2000/svg" width="160" height="160" viewBox="0 0 160 160" fill="none"><rect width="160" height="160" fill="white"></rect><path fill-rule="evenodd" clip-rule="evenodd" d="M47.5642 38.7141L46.6456 36.8034C47.6486 32.9147 63.34 25.3099 68.5666 23.3155C78.6456 19.4702 86.7851 17.9325 99.512 17.9289C109.813 17.9269 121.66 21.3159 128.55 25.2543C134.948 28.9119 145.218 36.4568 147.65 42.4683L145.864 44.3797C143.542 43.4999 139.452 40.0279 135.699 38.1286C122.217 31.3088 102.583 35.5596 96.6153 43.2121C97.8852 46.4982 101.783 49.5886 103.938 55.8911C104.624 57.8957 104.926 59.3987 106.172 60.9011C123.113 45.1317 137.249 60.453 137.249 71.471C137.248 88.5073 114.982 94.6913 106.225 81.8446C99.2769 71.6537 107.642 59.4837 89.7919 43.3178C72.0324 27.2324 51.2301 38.2993 47.5636 38.7141H47.5642ZM12.7857 68.4983C12.7301 58.0858 16.2874 45.1732 19.8082 37.6469C27.3386 21.5501 30.0221 22.6467 34.5248 14.9201C27.236 18.2314 17.6332 31.5907 12.9828 39.7037C-4.79262 70.7151 1.89067 111.807 27.3042 136.471C53.6275 162.017 93.976 167.845 125.248 148.593C132.902 143.881 147.675 131.89 150.678 124.214C147.612 126.207 145.682 128.927 142.416 131.607C92.9326 172.22 13.1661 140.697 12.7851 68.4983H12.7857ZM22.3666 72.5008C23.5471 70.4744 23.8566 66.9936 24.4145 64.5693C26.1414 57.0628 29.1432 48.86 32.6911 42.3815C38.1289 32.4525 43.0359 28.1166 50.7502 20.3299C63.4 7.56003 84.4012 1.48168 103.361 5.12639C107.503 5.92289 109.425 5.5089 108.809 9.40754C106.602 10.1378 90.4395 8.66636 84.5801 9.64911C67.2875 12.5485 54.6144 21.7861 44.4488 34.8208C41.2834 38.8795 42.0676 39.4056 40.2239 43.9928C38.6544 47.8967 23.525 60.9037 30.9089 83.0295C36.44 99.6041 46.5973 103.234 58.6925 107.914C57.1893 112.707 48.5102 119.358 49.0919 125.677C49.7848 133.223 59.8318 136.695 65.6671 131.235L77.4022 115.486C79.6578 112.649 81.0051 110.863 83.1263 107.856C84.019 106.591 84.884 105.162 85.8021 103.834C87.29 101.681 87.8247 101.571 89.2752 99.7354C87.6655 95.004 85.6514 96.9896 80.2439 81.8005C78.7121 82.825 67.0309 95.16 55.0931 84.7705C51.8177 81.9193 50.8582 80.9251 49.9605 78.0304C45.3857 63.2776 57.9331 50.373 71.3077 55.1432C92.3736 62.6568 72.9213 90.3519 104.646 104.997C108.188 106.632 111.439 106.977 113.619 108.66C111.775 113.692 99.9493 121.766 106.286 130.104C108.301 132.755 112.498 135.302 117.495 133.436C121.706 131.863 135.752 111.372 139.145 106.783C142.74 101.92 141.955 101.587 145.755 97.804C148.149 95.4192 151.189 91.9684 152.845 88.5367C157.322 79.2571 158.462 66.6034 153.445 55.982C149.798 48.2624 157.504 55.2026 148.485 39.4527C140.804 26.0387 128.884 16.7632 112.128 11.203C112.212 8.7258 112.559 8.59309 112.422 7.22342C95.8553 -3.94023 63.1258 -2.0574 46.2754 12.1322C38.4443 18.7269 32.2942 25.0866 27.2704 35.4449C23.0478 44.1499 19.6246 60.4789 22.3666 72.5011V72.5008Z" fill="#0D9CAA"></path></svg>