<svg xmlns="http://www.w3.org/2000/svg" width="148" height="60" viewBox="0 0 148 60" fill="none"><g clip-path="url(#clip0_27_247)"><mask id="mask0_27_247" style="mask-type:luminance" maskUnits="userSpaceOnUse" x="0" y="0" width="148" height="60"><path d="M147.418 0H0V60H147.418V0Z" fill="white"></path></mask><g mask="url(#mask0_27_247)"><path fill-rule="evenodd" clip-rule="evenodd" d="M16.6917 14.5006L16.3476 13.7849C16.7233 12.3284 22.6006 9.47995 24.5583 8.73296C28.3334 7.29265 31.3821 6.7167 36.1491 6.71538C40.0072 6.71461 44.4447 7.98399 47.0253 9.45912C49.4217 10.8292 53.2683 13.6551 54.1794 15.9068L53.5106 16.6227C52.6406 16.2932 51.1089 14.9927 49.703 14.2813C44.6535 11.7269 37.2992 13.3191 35.0641 16.1854C35.5397 17.4162 36.9997 18.5737 37.8068 20.9344C38.0636 21.6852 38.1768 22.2481 38.6436 22.8109C44.9888 16.9044 50.2837 22.643 50.2834 26.7699C50.2832 33.1509 41.9433 35.4672 38.6634 30.6554C36.061 26.8383 39.194 22.28 32.5083 16.2249C25.8564 10.2001 18.065 14.3452 16.6917 14.5006ZM3.66528 25.6564C3.64445 21.7564 4.97686 16.9199 6.29561 14.1009C9.11617 8.07171 10.1212 8.48246 11.8077 5.5884C9.0777 6.82868 5.48096 11.8325 3.73912 14.8713C-2.91877 26.4867 -0.415504 41.8778 9.10327 51.1158C18.9628 60.6842 34.0755 62.8672 45.7886 55.6564C48.6553 53.8915 54.1887 49.4002 55.3136 46.525C54.165 47.2714 53.4422 48.2904 52.219 49.2942C33.6847 64.5059 3.808 52.6987 3.66528 25.6564ZM7.25387 27.1556C7.69603 26.3966 7.81197 25.0928 8.02092 24.1848C8.66773 21.3732 9.79207 18.3008 11.1209 15.8743C13.1577 12.1553 14.9956 10.5313 17.885 7.61468C22.6231 2.83165 30.4892 0.554973 37.5906 1.92012C39.1422 2.21845 39.8622 2.06339 39.6312 3.52365C38.8046 3.79718 32.7509 3.24603 30.5562 3.61413C24.0792 4.70012 19.3324 8.1601 15.5248 13.0424C14.3392 14.5626 14.6329 14.7596 13.9424 16.4778C13.3545 17.94 7.68776 22.8119 10.4534 31.0992C12.5251 37.3073 16.3296 38.667 20.8599 40.4197C20.2968 42.2149 17.046 44.7062 17.2639 47.0729C17.5235 49.8994 21.2866 51.2 23.4723 49.1548L27.8677 43.2559C28.7125 42.1935 29.2172 41.5242 30.0117 40.398C30.346 39.9242 30.6701 39.3891 31.0139 38.8915C31.5712 38.085 31.7715 38.0439 32.3148 37.3564C31.7119 35.5843 30.9575 36.328 28.9321 30.6388C28.3583 31.0226 23.9831 35.6427 19.5117 31.7513C18.2849 30.6834 17.9255 30.311 17.5892 29.2267C15.8757 23.701 20.5754 18.8675 25.585 20.6542C33.4753 23.4685 26.1893 33.8418 38.0721 39.3273C39.3985 39.9395 40.6164 40.0687 41.4329 40.6994C40.7423 42.5841 36.3128 45.6083 38.6864 48.731C39.4412 49.7242 41.0132 50.6783 42.8847 49.9793C44.4618 49.3902 49.7229 41.715 50.9937 39.996C52.3405 38.1746 52.0461 38.0501 53.4694 36.633C54.3664 35.7398 55.5051 34.4473 56.1254 33.1619C57.8022 29.6862 58.2289 24.9467 56.3497 20.9684C54.9838 18.077 57.8701 20.6765 54.4922 14.7772C51.6152 9.75294 47.1506 6.27874 40.8743 4.19614C40.906 3.2683 41.0359 3.21859 40.9845 2.70557C34.7794 -1.47583 22.5204 -0.770609 16.209 4.54417C13.2758 7.01427 10.9723 9.3963 9.0906 13.2761C7.509 16.5366 6.22684 22.6526 7.25387 27.1556Z" fill="#0D9CAA"></path><path d="M74.723 40.5615C74.7362 40.6077 74.7064 40.7545 74.634 41.0018C74.5614 41.2493 74.4624 41.5692 74.337 41.9618C74.2118 42.3543 74.0649 42.808 73.8967 43.3226C73.7283 43.8371 73.5519 44.3831 73.3673 44.9604C73.1825 45.5376 72.996 46.1364 72.8081 46.7566C72.62 47.3767 72.4435 47.9869 72.2787 48.5872C72.5754 48.3166 72.828 48.0397 73.0357 47.7559C73.2433 47.4721 73.4135 47.1885 73.5454 46.9049C73.5718 46.8455 73.6064 46.8108 73.6492 46.8011C73.692 46.791 73.7316 46.796 73.7681 46.8157C73.8044 46.8357 73.8306 46.8652 73.8472 46.9049C73.8637 46.9443 73.8586 46.9873 73.8324 47.0335C73.6345 47.4029 73.3935 47.7592 73.1099 48.1022C72.8264 48.4454 72.5029 48.7652 72.14 49.0622C71.9552 49.7682 71.8021 50.433 71.68 51.0563C71.5578 51.6797 71.4886 52.2238 71.4719 52.689C71.4555 53.1541 71.5036 53.5169 71.6156 53.7777C71.7278 54.0382 71.9224 54.152 72.1996 54.1191C72.3511 54.0991 72.5294 53.9951 72.7339 53.8074C72.9385 53.6193 73.1595 53.3752 73.3969 53.075C73.6345 52.7748 73.8785 52.4352 74.1292 52.0558C74.38 51.6763 74.6256 51.2887 74.8664 50.8929L74.9816 50.7026C74.9897 50.5873 75.004 50.4676 75.0248 50.3437C75.081 50.0104 75.175 49.6756 75.3069 49.3391C75.4389 49.0027 75.6072 48.6727 75.8116 48.3495C76.0161 48.0262 76.2487 47.7374 76.5092 47.4836C76.77 47.2295 77.0586 47.0217 77.3751 46.86C77.6918 46.6985 78.0284 46.6111 78.3846 46.5978C78.5363 46.5911 78.6798 46.6111 78.8151 46.6573C78.9504 46.7035 79.0657 46.7727 79.1614 46.865C79.257 46.9573 79.323 47.0726 79.3594 47.2113C79.3957 47.3499 79.394 47.5048 79.3543 47.6764C79.2949 47.9403 79.1746 48.1513 78.9932 48.3099C78.8118 48.4681 78.5974 48.5869 78.35 48.6661C78.1025 48.7452 77.8353 48.7932 77.5486 48.8096C77.2615 48.8261 76.9827 48.8178 76.7121 48.7848C76.521 49.1345 76.3559 49.4907 76.2175 49.8535C76.0788 50.2165 75.9883 50.548 75.9453 50.8479C75.9025 51.1482 75.9155 51.3973 75.9849 51.595C76.0542 51.793 76.1976 51.8987 76.4154 51.9117C76.6265 51.925 76.9103 51.826 77.2666 51.6149C77.6227 51.4039 78.0236 51.1038 78.4689 50.7143C78.9143 50.3252 79.3892 49.8568 79.894 49.3092C80.1832 48.9951 80.4722 48.6638 80.7606 48.3151C80.8268 48.1183 80.8974 47.9202 80.9725 47.721C81.22 47.0647 81.5036 46.4196 81.8236 45.7862C82.1436 45.1529 82.4768 44.5807 82.823 44.0693C83.1695 43.5582 83.5141 43.134 83.8573 42.7978C84.2003 42.4611 84.5235 42.2634 84.827 42.2037C85.0448 42.1643 85.2163 42.1775 85.3417 42.2434C85.4669 42.3094 85.5611 42.4002 85.6236 42.5156C85.6863 42.631 85.726 42.7531 85.7425 42.8818C85.759 43.0105 85.7637 43.1143 85.7572 43.1935C85.7242 43.6222 85.6369 44.0313 85.495 44.4206C85.3531 44.8097 85.1766 45.1743 84.9656 45.5142C84.7544 45.8538 84.5202 46.1638 84.2629 46.4442C84.0057 46.7245 83.745 46.9736 83.4812 47.1913C83.2173 47.4091 82.9617 47.5905 82.7144 47.7354C82.4668 47.8808 82.2474 47.9829 82.0562 48.0424C81.8253 48.636 81.6224 49.21 81.4475 49.7643C81.2727 50.3183 81.144 50.8116 81.0616 51.2438C80.9791 51.6759 80.9529 52.0272 80.9824 52.2978C81.012 52.5684 81.1227 52.7167 81.3138 52.7431C81.5119 52.7694 81.7774 52.6704 82.1105 52.4461C82.4438 52.2217 82.8151 51.8872 83.2238 51.4418C83.6328 50.9963 84.065 50.4438 84.5203 49.7842C84.926 49.196 85.3241 48.5344 85.7141 47.7998C85.7169 47.4238 85.6952 47.1057 85.6484 46.8451C85.6287 46.7462 85.6847 46.6687 85.8166 46.6125C85.9485 46.5565 86.1002 46.5119 86.2718 46.4789C86.4434 46.446 86.5934 46.4657 86.7221 46.5383C86.8507 46.6109 86.9083 46.7231 86.8951 46.8748C86.8689 47.1716 86.8408 47.4734 86.811 47.7803C86.7815 48.0871 86.7468 48.3989 86.7073 48.7154C86.9711 48.4121 87.2317 48.1333 87.4889 47.8792C87.7462 47.6252 87.9938 47.4075 88.2313 47.226C88.4688 47.0446 88.6931 46.9011 88.9042 46.7955C89.1152 46.6901 89.3099 46.6305 89.4882 46.6175C89.7387 46.6042 89.94 46.647 90.0917 46.7461C90.2436 46.845 90.3622 46.9671 90.4481 47.1123C90.5337 47.2572 90.5899 47.4074 90.6163 47.5625C90.6427 47.7175 90.6525 47.8446 90.646 47.9436C90.6196 48.3987 90.5501 48.821 90.4382 49.2101C90.9857 49.032 91.5317 48.8028 92.076 48.5225C92.4206 48.345 92.7489 48.1297 93.0604 47.8766C93.118 47.7536 93.1726 47.6356 93.2238 47.5228C93.3394 47.269 93.4218 47.0546 93.4713 46.8796C93.5208 46.7048 93.5127 46.6009 93.4465 46.568C93.5059 46.4161 93.595 46.3221 93.7136 46.2858C93.8325 46.2496 93.9528 46.2431 94.0749 46.2661C94.197 46.2891 94.3092 46.3337 94.4114 46.3997C94.5136 46.4656 94.5779 46.5218 94.6044 46.5679C94.6438 46.6405 94.6358 46.7839 94.5796 46.9983C94.5236 47.2127 94.4412 47.4586 94.332 47.7354C94.2234 48.0127 94.0996 48.3063 93.9612 48.6163C93.8226 48.9263 93.6906 49.2133 93.5652 49.4771C93.44 49.741 93.3311 49.9655 93.2387 50.1502C93.1463 50.3348 93.0968 50.4437 93.0902 50.4767C93.0375 50.6349 93.0145 50.7519 93.021 50.8281C93.0277 50.9038 93.0589 50.9516 93.1151 50.9715C93.1711 50.9913 93.2502 50.9913 93.3526 50.9715C93.4548 50.9516 93.5786 50.9254 93.7237 50.8923C93.915 50.8526 94.1195 50.7702 94.3372 50.645C94.555 50.5196 94.7759 50.3661 95.0002 50.1847C95.2245 50.0033 95.4489 49.8006 95.6732 49.5762C95.8976 49.3519 96.1137 49.121 96.3215 48.8835C96.5292 48.6459 96.724 48.4084 96.9053 48.1711C97.0812 47.9407 97.2372 47.7227 97.3729 47.5173C97.4192 47.2787 97.4334 47.0711 97.415 46.8943C97.4085 46.8613 97.4183 46.8234 97.4448 46.7806C97.4712 46.7378 97.5156 46.7014 97.5783 46.6717C97.6408 46.6419 97.7233 46.6224 97.8256 46.6123C97.928 46.6025 98.0518 46.6106 98.1969 46.6371C98.3551 46.67 98.4507 46.7657 98.4837 46.924C98.5169 47.0824 98.5103 47.277 98.4642 47.508C98.4179 47.7388 98.3421 47.9946 98.2364 48.2749C98.1309 48.5553 98.0188 48.8374 97.8999 49.121C97.7812 49.4048 97.6642 49.6786 97.5486 49.9424C97.4332 50.2063 97.3392 50.4373 97.2667 50.6351C97.1939 50.8331 97.1578 50.9848 97.1578 51.0905C97.1578 51.1958 97.2105 51.2323 97.3162 51.1991C97.4348 51.1662 97.5867 51.0475 97.7711 50.8429C97.9559 50.6384 98.1589 50.3945 98.38 50.1107C98.6008 49.8269 98.8349 49.5234 99.0825 49.2002C99.3298 48.8769 99.5741 48.5769 99.8147 48.2997C100.056 48.0226 100.288 47.7916 100.513 47.6069C100.737 47.4223 100.938 47.3233 101.116 47.3101C101.354 47.2969 101.512 47.3596 101.591 47.4982C101.67 47.6367 101.697 47.8198 101.67 48.0474C101.644 48.275 101.576 48.5388 101.467 48.8392C101.359 49.1394 101.235 49.446 101.096 49.7595C100.958 50.0728 100.819 50.3797 100.681 50.6798C100.542 50.9798 100.425 51.2471 100.33 51.4813C100.234 51.7156 100.176 51.9053 100.156 52.0504C100.137 52.1955 100.179 52.2681 100.285 52.2681C100.344 52.2681 100.466 52.1857 100.651 52.0208C100.836 51.856 101.057 51.6397 101.314 51.3727C101.571 51.1055 101.852 50.8051 102.155 50.4721C102.459 50.1388 102.759 49.8008 103.056 49.4577C103.159 49.3385 103.26 49.2205 103.36 49.104C103.399 49.0037 103.441 48.9021 103.486 48.7996C103.641 48.4466 103.834 48.1201 104.065 47.82C104.296 47.5197 104.568 47.2659 104.882 47.058C105.195 46.8501 105.559 46.7263 105.975 46.6869C106.312 46.6539 106.577 46.6672 106.772 46.7263C106.966 46.7858 107.11 46.8633 107.202 46.959C107.295 47.0549 107.353 47.1538 107.376 47.2558C107.399 47.3582 107.41 47.4389 107.41 47.4985C107.41 47.5379 107.395 47.5709 107.365 47.5974C107.336 47.6237 107.301 47.6402 107.262 47.6467C107.222 47.6532 107.187 47.6451 107.158 47.6219C107.128 47.599 107.113 47.5575 107.113 47.4983C107.113 47.4388 107.102 47.3762 107.079 47.3102C107.056 47.2443 107.011 47.1867 106.945 47.1372C106.879 47.0877 106.788 47.0531 106.673 47.0332C106.558 47.0134 106.407 47.0233 106.223 47.0629C106.058 47.0959 105.893 47.185 105.728 47.3302C105.563 47.4751 105.401 47.6566 105.243 47.8743C105.085 48.092 104.936 48.3361 104.797 48.6067C104.659 48.877 104.537 49.151 104.431 49.4279C104.326 49.7049 104.24 49.9773 104.174 50.2444C104.108 50.5116 104.069 50.749 104.055 50.9569C104.042 51.1645 104.059 51.3345 104.105 51.4664C104.151 51.5983 104.237 51.671 104.362 51.6842C104.468 51.6974 104.6 51.6546 104.758 51.5555C104.916 51.4567 105.086 51.3248 105.268 51.1598C105.449 50.9949 105.638 50.8034 105.837 50.5857C106.035 50.3679 106.229 50.1454 106.421 49.9178C106.612 49.69 106.792 49.4675 106.96 49.2498C107.128 49.032 107.278 48.8376 107.41 48.666C107.502 48.5076 107.596 48.364 107.692 48.2354C107.788 48.1068 107.889 47.9965 107.994 47.904C108.067 47.8446 108.123 47.7851 108.162 47.7259C108.202 47.6665 108.245 47.6303 108.291 47.617C108.423 47.5707 108.533 47.5462 108.622 47.5428C108.712 47.5395 108.779 47.5495 108.825 47.5723C108.871 47.5955 108.9 47.6252 108.909 47.6615C108.919 47.6977 108.911 47.7355 108.885 47.7753C108.608 48.1908 108.353 48.6873 108.122 49.2645C107.892 49.8418 107.671 50.4637 107.459 51.1299C107.908 50.8464 108.345 50.5627 108.771 50.2789C109.196 49.9953 109.594 49.7048 109.963 49.408C110.333 49.111 110.669 48.8061 110.973 48.4926C111.276 48.1793 111.53 47.8577 111.735 47.5278C111.761 47.4881 111.793 47.4653 111.829 47.4586C111.865 47.4521 111.896 47.4586 111.923 47.4783C111.949 47.4982 111.967 47.5261 111.977 47.5624C111.987 47.5989 111.982 47.6335 111.963 47.6664C111.712 48.0358 111.415 48.3921 111.072 48.7351C110.729 49.0781 110.357 49.4097 109.959 49.7297C109.559 50.0497 109.135 50.3613 108.687 50.6646C108.238 50.9684 107.783 51.2651 107.321 51.5554C107.123 52.1887 106.927 52.837 106.732 53.5001C106.538 54.1631 106.332 54.8062 106.114 55.4298C105.896 56.0532 105.662 56.6405 105.411 57.1911C105.161 57.7422 104.883 58.222 104.58 58.6311C104.277 59.0403 103.938 59.3617 103.566 59.596C103.193 59.8303 102.779 59.9406 102.324 59.9276C101.974 59.9209 101.68 59.8549 101.443 59.7296C101.205 59.6044 101.012 59.4426 100.864 59.2446C100.716 59.0468 100.612 58.8243 100.552 58.5768C100.493 58.3295 100.473 58.0835 100.493 57.8395C100.533 57.2457 100.717 56.6867 101.047 56.1621C101.377 55.6375 101.801 55.1362 102.319 54.6578C102.837 54.1795 103.422 53.7212 104.075 53.2822C104.729 52.8435 105.398 52.4098 106.084 51.9811C106.216 51.5786 106.346 51.1911 106.475 50.8181C106.604 50.4454 106.737 50.0908 106.876 49.7543C106.691 50.0049 106.48 50.2689 106.243 50.5461C106.005 50.8232 105.753 51.0821 105.486 51.3231C105.218 51.5637 104.945 51.7701 104.664 51.9415C104.384 52.1131 104.105 52.2121 103.828 52.2383C103.755 52.245 103.673 52.2383 103.581 52.2186C103.488 52.1988 103.397 52.1526 103.308 52.0801C103.219 52.0074 103.14 51.9067 103.071 51.7782C103.002 51.6496 102.954 51.4797 102.927 51.2687C102.914 51.15 102.921 50.9603 102.947 50.6996C102.973 50.439 103.031 50.1454 103.12 49.819L103.127 49.7955C102.965 49.9864 102.798 50.1793 102.625 50.3729C102.365 50.6664 102.101 50.9518 101.834 51.2289C101.567 51.5062 101.309 51.7518 101.062 51.9662C100.815 52.1805 100.585 52.3537 100.374 52.4857C100.163 52.6176 99.9848 52.6837 99.8397 52.6837C99.6219 52.6837 99.4767 52.6111 99.4043 52.466C99.3315 52.3206 99.3103 52.1276 99.3399 51.887C99.3694 51.646 99.4372 51.3725 99.5427 51.0654C99.6482 50.7587 99.7686 50.4454 99.9038 50.1255C100.039 49.8054 100.179 49.4937 100.324 49.1904C100.47 48.8869 100.595 48.6196 100.701 48.3887C100.806 48.1578 100.879 47.9747 100.918 47.8393C100.958 47.704 100.945 47.6464 100.879 47.6663C100.72 47.7125 100.541 47.8444 100.339 48.0621C100.138 48.2798 99.9205 48.542 99.6862 48.8486C99.4521 49.1554 99.2062 49.4821 98.9489 49.8284C98.6917 50.1746 98.4312 50.493 98.1672 50.7834C97.9033 51.0737 97.6393 51.3145 97.3753 51.5061C97.1115 51.6972 96.8543 51.7928 96.6037 51.7928C96.4321 51.7928 96.3066 51.7534 96.2275 51.6742C96.1483 51.5948 96.0988 51.4498 96.0792 51.2388C96.0725 51.1661 96.1038 51.0341 96.173 50.8428C96.2424 50.6515 96.3298 50.4256 96.4351 50.165C96.5408 49.9043 96.6564 49.6239 96.7816 49.3237C96.9071 49.0235 97.0208 48.7234 97.1231 48.4232L97.1344 48.3892C96.8647 48.7464 96.6035 49.063 96.351 49.3386C95.9518 49.774 95.5726 50.1319 95.2131 50.4124C94.8536 50.6928 94.5072 50.9088 94.1739 51.0607C93.8409 51.2121 93.5224 51.3245 93.2188 51.397C93.1662 51.4102 93.0788 51.4265 92.9564 51.4464C92.8345 51.4662 92.7075 51.4629 92.5756 51.4366C92.4436 51.4102 92.3217 51.3458 92.2093 51.2437C92.0974 51.1415 92.0279 50.9747 92.0017 50.744C91.9817 50.5789 92.0133 50.3661 92.0957 50.1055C92.1781 49.845 92.2838 49.5663 92.4124 49.2694C92.5343 48.9884 92.6649 48.7026 92.8043 48.4124C92.5576 48.584 92.3065 48.7343 92.0513 48.8635C91.464 49.1603 90.8867 49.3946 90.3194 49.5662C90.1413 50.0543 89.917 50.4751 89.6464 50.8281C89.3761 51.1808 89.0891 51.4695 88.7856 51.6937C88.4821 51.9181 88.1851 52.0816 87.895 52.1837C87.6045 52.2861 87.3507 52.3272 87.1329 52.3073C86.8162 52.281 86.5935 52.2084 86.4648 52.0895C86.3362 51.9709 86.2555 51.8357 86.2226 51.6838C86.0445 52.5152 85.8399 53.3036 85.6089 54.049C85.3781 54.7944 85.1223 55.4495 84.842 56.0133C84.5616 56.5774 84.255 57.0227 83.9217 57.3495C83.5886 57.6759 83.2339 57.8295 82.8578 57.8095C82.5809 57.7965 82.3995 57.6759 82.3138 57.4485C82.228 57.2209 82.2181 56.9174 82.284 56.5379C82.35 56.1587 82.4803 55.7199 82.675 55.2217C82.8695 54.7236 83.1104 54.1992 83.3972 53.6482C83.6843 53.0976 84.0061 52.5333 84.3623 51.9559C84.7185 51.3787 85.0912 50.8197 85.4805 50.2787C85.5824 49.6238 85.6518 49.0184 85.6883 48.4622C85.5826 48.6549 85.4723 48.846 85.3567 49.0366C85.0832 49.4885 84.796 49.9188 84.4959 50.328C84.1956 50.737 83.8905 51.1146 83.5803 51.4611C83.2702 51.8074 82.9667 52.1044 82.6699 52.3517C82.3732 52.5992 82.0927 52.7888 81.8288 52.9208C81.565 53.0527 81.3273 53.1087 81.1163 53.089C80.7534 53.056 80.4947 52.8813 80.3394 52.5646C80.1843 52.2479 80.1134 51.8403 80.1267 51.3424C80.1399 50.8443 80.2223 50.2802 80.3742 49.6502C80.4166 49.4736 80.4629 49.2961 80.5131 49.1174L80.3644 49.2842C80.1003 49.5776 79.8168 49.8744 79.5133 50.1746C79.2097 50.475 78.893 50.7634 78.5633 51.0406C78.2333 51.3177 77.9068 51.5583 77.5835 51.7631C77.2603 51.9676 76.9452 52.1195 76.6386 52.2182C76.3318 52.3172 76.0496 52.3403 75.7924 52.2874C75.5548 52.2348 75.3719 52.1161 75.2432 51.9312C75.1303 51.7693 75.053 51.5745 75.0114 51.3464L74.9662 51.4215C74.7053 51.8538 74.4364 52.2726 74.1595 52.6783C73.8824 53.084 73.6084 53.4454 73.3381 53.7619C73.0675 54.0786 72.8053 54.3327 72.5513 54.5238C72.2975 54.7152 72.0648 54.8143 71.8537 54.8208C71.5042 54.8275 71.2337 54.7021 71.0421 54.4446C70.8508 54.1874 70.7205 53.8362 70.6513 53.3908C70.5819 52.9455 70.5638 52.426 70.5968 51.8322C70.6297 51.2386 70.7025 50.6084 70.8145 49.9421C70.4319 50.1399 70.028 50.3067 69.6021 50.4434C69.1767 50.5804 68.7264 50.6761 68.2515 50.7337C68.0535 51.3011 67.854 51.8404 67.6527 52.3518C67.4515 52.8632 67.2569 53.3282 67.0689 53.7471C66.881 54.1663 66.7011 54.5288 66.5297 54.8358C66.3581 55.1426 66.2031 55.3684 66.0645 55.5137C66.0116 55.5731 65.9558 55.6175 65.8963 55.6472C65.8369 55.677 65.7874 55.6883 65.7478 55.6816C65.7084 55.6753 65.6819 55.6554 65.6687 55.6224C65.6555 55.5893 65.6687 55.5367 65.7084 55.4641C65.7875 55.3189 65.8848 55.0963 66.0003 54.796C66.1157 54.4958 66.2443 54.1428 66.3863 53.7371C66.5281 53.3312 66.6763 52.8779 66.8316 52.3764C66.9865 51.8748 67.1433 51.3471 67.3015 50.7931C66.7408 50.8061 66.1703 50.755 65.5897 50.6396C65.5434 50.6329 65.5104 50.6148 65.4907 50.5817C65.471 50.5504 65.4643 50.5175 65.471 50.4861C65.4773 50.4531 65.4956 50.4236 65.5253 50.3971C65.5551 50.3707 65.5996 50.3642 65.6588 50.3774C66.2593 50.4764 66.8366 50.5158 67.3907 50.4961C67.6085 49.7242 67.8146 48.9259 68.0093 48.1012C68.2039 47.2766 68.3671 46.48 68.4991 45.7114C68.631 44.9427 68.7201 44.2253 68.7663 43.5592C68.8125 42.8927 68.7961 42.3252 68.7168 41.8568C68.7038 41.7974 68.7533 41.7479 68.8653 41.7083C68.9775 41.6689 69.1061 41.6424 69.2512 41.6292C69.3964 41.616 69.5334 41.6227 69.662 41.6492C69.7906 41.6754 69.868 41.7249 69.8946 41.7975C70.0198 42.1472 70.0644 42.6353 70.0282 43.2622C69.9919 43.8889 69.8963 44.593 69.7411 45.3751C69.5861 46.1568 69.3881 46.9814 69.1475 47.8489C68.9065 48.7165 68.6477 49.566 68.3706 50.3973C68.8454 50.3246 69.2908 50.2175 69.7065 50.0757C70.1222 49.9338 70.5116 49.7673 70.8744 49.5759C70.9734 49.0217 71.0904 48.4559 71.2255 47.8788C71.3608 47.3015 71.5044 46.7342 71.656 46.1766C71.8078 45.6191 71.9646 45.0815 72.1262 44.5636C72.2878 44.0457 72.4462 43.5639 72.6011 43.1187C72.7562 42.6735 72.9013 42.2776 73.0366 41.9313C73.1719 41.585 73.2922 41.3062 73.3977 41.095C73.4174 41.0621 73.495 41.0061 73.6304 40.927C73.7657 40.8477 73.9123 40.7734 74.0709 40.7042C74.229 40.6348 74.3741 40.5821 74.5061 40.5459C74.638 40.5096 74.7106 40.5145 74.7238 40.5607L74.723 40.5615ZM144.075 45.3412C143.983 45.6315 143.844 45.8956 143.659 46.1331C143.475 46.3706 143.277 46.6048 143.066 46.8358C143.112 47.2315 143.17 47.6569 143.239 48.1123C143.308 48.5675 143.362 49.0226 143.402 49.4778C143.765 49.3459 144.129 49.2122 144.496 49.077C144.862 48.9418 145.21 48.7902 145.54 48.622C145.869 48.4536 146.17 48.264 146.44 48.0528C146.71 47.8418 146.935 47.5911 147.113 47.3008C147.126 47.2811 147.148 47.2711 147.177 47.2711C147.207 47.2711 147.237 47.2795 147.266 47.2959C147.296 47.3124 147.319 47.334 147.336 47.3603C147.352 47.3865 147.351 47.4165 147.331 47.4494C147.12 47.7727 146.866 48.0513 146.569 48.2856C146.272 48.5199 145.95 48.7261 145.604 48.9042C145.258 49.0823 144.898 49.2391 144.525 49.3742C144.152 49.5095 143.788 49.6398 143.432 49.7652C143.458 50.1939 143.453 50.6047 143.417 50.9971C143.381 51.3898 143.288 51.7361 143.14 52.0364C142.991 52.3366 142.775 52.5788 142.492 52.7636C142.208 52.9485 141.832 53.0441 141.363 53.0506C141.231 53.0506 141.108 53.0175 140.992 52.9517C140.877 52.8856 140.778 52.8 140.695 52.6944C140.613 52.5887 140.55 52.47 140.508 52.338C140.465 52.2061 140.45 52.0742 140.463 51.9423C140.483 51.6784 140.547 51.4426 140.656 51.2347C140.765 51.0269 140.908 50.839 141.086 50.6705C141.264 50.5023 141.471 50.3523 141.705 50.2202C141.939 50.0882 142.191 49.9629 142.462 49.8442C142.436 49.4747 142.399 49.0937 142.353 48.7013C142.34 48.5872 142.327 48.4737 142.316 48.3609L142.155 48.6271C141.99 48.8974 141.801 49.2009 141.586 49.5376C141.372 49.8739 141.141 50.2172 140.893 50.5668C140.646 50.9164 140.39 51.2579 140.126 51.5911C139.863 51.9241 139.604 52.2193 139.35 52.4768C139.096 52.7341 138.852 52.9418 138.617 53.1002C138.383 53.2586 138.17 53.3377 137.979 53.3377C137.808 53.3377 137.671 53.262 137.568 53.1085C137.466 52.9552 137.395 52.7441 137.356 52.4752C137.316 52.2063 137.304 51.8882 137.321 51.5219C137.337 51.1557 137.382 50.7582 137.455 50.3295C137.296 50.5538 137.111 50.7798 136.9 51.0074C136.689 51.2349 136.475 51.4395 136.257 51.6209C136.039 51.8023 135.828 51.9492 135.624 52.0612C135.419 52.1731 135.241 52.226 135.089 52.2195C134.812 52.1998 134.601 52.1487 134.456 52.0645C134.311 51.982 134.207 51.8831 134.144 51.7677C134.082 51.6538 134.047 51.5301 134.04 51.3982C134.034 51.2662 134.027 51.1475 134.021 51.042C134.021 50.943 134.045 50.7663 134.095 50.5125C134.123 50.3712 134.159 50.2193 134.205 50.0566C134.114 50.1621 134.021 50.2678 133.927 50.3739C133.666 50.6674 133.402 50.9528 133.135 51.2299C132.868 51.5072 132.611 51.7528 132.363 51.9672C132.116 52.1815 131.887 52.3547 131.675 52.4867C131.464 52.6186 131.286 52.6847 131.141 52.6847C130.923 52.6847 130.778 52.6121 130.706 52.467C130.633 52.3216 130.612 52.1286 130.641 51.888C130.671 51.647 130.738 51.3735 130.844 51.0664C130.95 50.7597 131.07 50.4464 131.205 50.1265C131.341 49.8064 131.481 49.4947 131.626 49.1914C131.771 48.8878 131.896 48.6206 132.002 48.3897C132.107 48.1588 132.18 47.9757 132.219 47.8403C132.259 47.705 132.246 47.6473 132.18 47.6673C132.022 47.7135 131.842 47.8454 131.641 48.0631C131.44 48.2808 131.222 48.543 130.988 48.8496C130.753 49.1564 130.508 49.4831 130.25 49.8294C129.993 50.1756 129.733 50.494 129.469 50.7844C129.205 51.0747 128.941 51.3155 128.677 51.5071C128.413 51.6982 128.156 51.7938 127.905 51.7938C127.733 51.7938 127.608 51.7544 127.529 51.6752C127.45 51.5958 127.4 51.4508 127.381 51.2398C127.374 51.1671 127.405 51.0351 127.474 50.8438C127.544 50.6525 127.631 50.4266 127.737 50.166C127.842 49.9053 127.958 49.6249 128.083 49.3247C128.197 49.0523 128.301 48.7798 128.396 48.5076L128.202 48.7804C127.938 49.1533 127.671 49.521 127.4 49.8839C127.13 50.2468 126.861 50.5947 126.594 50.928C126.327 51.2611 126.066 51.5594 125.812 51.8235C125.558 52.0873 125.314 52.3065 125.08 52.4816C124.846 52.6564 124.626 52.7669 124.422 52.813C124.369 52.8262 124.282 52.8425 124.16 52.8625C124.037 52.8824 123.91 52.879 123.778 52.8525C123.646 52.8262 123.524 52.7619 123.412 52.6597C123.3 52.5573 123.231 52.3908 123.205 52.1599C123.178 51.9885 123.211 51.7377 123.304 51.408C123.396 51.078 123.515 50.715 123.66 50.3191C123.501 50.5172 123.318 50.7267 123.11 50.9475C122.903 51.1686 122.687 51.3683 122.462 51.5464C122.238 51.7247 122.007 51.868 121.769 51.9769C121.532 52.0858 121.305 52.1271 121.087 52.1006C120.849 52.0742 120.669 51.9307 120.547 51.6702C120.496 51.5594 120.455 51.4388 120.426 51.3082C120.347 51.4296 120.267 51.5504 120.186 51.6702C119.949 52.0229 119.718 52.3366 119.493 52.6102C119.269 52.884 119.058 53.1048 118.86 53.2732C118.662 53.4414 118.487 53.5289 118.336 53.5354C118.006 53.5421 117.768 53.4581 117.623 53.2829C117.478 53.1081 117.394 52.8741 117.371 52.5805C117.347 52.287 117.376 51.9521 117.455 51.5759C117.534 51.1998 117.636 50.8156 117.761 50.4232C117.887 50.0307 118.022 49.6462 118.167 49.2704C118.313 48.8941 118.441 48.5579 118.553 48.261C118.666 47.964 118.746 47.7266 118.796 47.5485C118.845 47.3702 118.84 47.2847 118.781 47.2912C118.583 47.3109 118.375 47.3933 118.157 47.5385C117.94 47.6838 117.722 47.8715 117.504 48.1025C117.286 48.3334 117.072 48.5941 116.861 48.8844C116.65 49.1747 116.449 49.4682 116.257 49.7652C115.809 50.4645 115.37 51.2561 114.941 52.1401V52.1206C114.921 52.1865 114.905 52.2194 114.892 52.2194C114.806 52.2392 114.704 52.1981 114.585 52.0957C114.466 51.9935 114.384 51.8567 114.337 51.6849C114.324 51.639 114.352 51.4706 114.422 51.1803C114.491 50.89 114.593 50.5222 114.728 50.077C114.863 49.6316 115.025 49.1302 115.213 48.5729C115.401 48.0153 115.611 47.448 115.842 46.8707C116.072 46.2934 116.322 45.7277 116.589 45.1734C116.856 44.6194 117.131 44.1261 117.415 43.6942C117.699 43.2619 117.988 42.9106 118.281 42.6399C118.575 42.3694 118.867 42.2244 119.157 42.2045C119.361 42.1913 119.528 42.2162 119.657 42.2788C119.785 42.3415 119.888 42.4239 119.963 42.5263C120.039 42.6287 120.09 42.7441 120.117 42.8726C120.143 43.0012 120.158 43.1266 120.161 43.2487C120.165 43.3708 120.158 43.4795 120.142 43.5753C120.125 43.6709 120.113 43.7387 120.107 43.7781C119.988 44.2003 119.82 44.5615 119.602 44.8616C119.384 45.1618 119.139 45.4127 118.865 45.6138C118.591 45.8149 118.298 45.9716 117.984 46.0838C117.671 46.1958 117.359 46.2717 117.049 46.3114C116.91 46.6611 116.772 47.0174 116.633 47.3801C116.495 47.743 116.363 48.1009 116.237 48.4538C116.112 48.8068 115.992 49.1484 115.876 49.4781C115.761 49.8081 115.654 50.1149 115.555 50.3985C115.68 50.1677 115.822 49.9201 115.98 49.6561C116.139 49.3923 116.309 49.1283 116.49 48.8645C116.671 48.6006 116.864 48.3451 117.069 48.0977C117.273 47.8501 117.483 47.6309 117.697 47.4395C117.912 47.2482 118.129 47.0898 118.35 46.9646C118.572 46.8394 118.791 46.7633 119.008 46.737C119.266 46.7106 119.437 46.7832 119.523 46.9548C119.609 47.1262 119.639 47.3605 119.612 47.6573C119.586 47.9543 119.516 48.2989 119.404 48.6916C119.292 49.084 119.167 49.4865 119.028 49.8989C118.89 50.3111 118.75 50.7151 118.608 51.1111C118.466 51.507 118.354 51.863 118.271 52.1798C118.189 52.4965 118.147 52.7505 118.147 52.9418C118.147 53.1332 118.22 53.2321 118.365 53.2386C118.477 53.2386 118.621 53.1562 118.796 52.9913C118.971 52.8265 119.158 52.6087 119.36 52.3381C119.561 52.0678 119.774 51.7577 119.998 51.4081C120.124 51.2125 120.248 51.0151 120.37 50.8154C120.369 50.784 120.369 50.7523 120.369 50.7201C120.373 50.3476 120.438 49.9466 120.567 49.5177C120.696 49.089 120.887 48.6864 121.141 48.3106C121.395 47.9343 121.714 47.6178 122.096 47.3604C122.479 47.1031 122.924 46.9579 123.432 46.9249C123.643 46.9117 123.833 46.9233 124.001 46.9595C124.169 46.9958 124.3 47.0271 124.392 47.0537C124.465 47.0732 124.514 47.1048 124.54 47.1477C124.567 47.1904 124.577 47.2334 124.57 47.2763C124.564 47.3193 124.545 47.3522 124.516 47.3752C124.486 47.3983 124.448 47.3966 124.402 47.3702C124.382 47.3637 124.342 47.3454 124.283 47.3158C124.224 47.2863 124.15 47.2596 124.061 47.2367C123.971 47.2135 123.874 47.1988 123.769 47.1921C123.663 47.1856 123.554 47.2021 123.442 47.2416C123.126 47.347 122.842 47.5251 122.591 47.776C122.439 47.9278 122.302 48.0911 122.179 48.2659L122.042 48.533C121.943 48.7241 121.833 48.931 121.71 49.1543C121.654 49.2995 121.606 49.447 121.567 49.5968C121.478 49.9333 121.432 50.24 121.428 50.5171C121.425 50.7943 121.468 51.0217 121.557 51.1998C121.646 51.3779 121.783 51.4636 121.968 51.4573C122.106 51.4573 122.265 51.3913 122.443 51.2593C122.621 51.1274 122.801 50.969 122.982 50.7842C123.163 50.5994 123.337 50.4031 123.501 50.1955C123.667 49.9876 123.805 49.8079 123.917 49.656C124.036 49.3328 124.155 49.0179 124.273 48.7111C124.392 48.4043 124.493 48.1273 124.575 47.8798C124.658 47.6325 124.714 47.4295 124.743 47.2711C124.773 47.1129 124.762 47.0173 124.709 46.9841C124.768 46.8325 124.857 46.7385 124.976 46.7022C125.095 46.6659 125.217 46.6592 125.342 46.6823C125.467 46.7055 125.58 46.75 125.679 46.8158C125.777 46.8818 125.84 46.9379 125.867 46.984C125.906 47.0566 125.896 47.2248 125.837 47.4886C125.778 47.7525 125.692 48.0611 125.58 48.4138C125.468 48.7668 125.339 49.1414 125.194 49.5373C125.049 49.9331 124.912 50.2994 124.783 50.6356C124.654 50.9723 124.542 51.2575 124.447 51.4918C124.351 51.7259 124.3 51.8596 124.293 51.8924C124.24 52.0508 124.222 52.1681 124.239 52.2438C124.255 52.3197 124.295 52.3625 124.357 52.3724C124.42 52.3824 124.503 52.3659 124.605 52.3229C124.707 52.2802 124.821 52.2191 124.946 52.1398C125.131 52.0212 125.336 51.8463 125.56 51.6154C125.784 51.3845 126.017 51.1256 126.257 50.8386C126.498 50.5515 126.741 50.2465 126.985 49.923C127.229 49.5998 127.463 49.2866 127.687 48.983C127.912 48.6794 128.12 48.3975 128.311 48.1368C128.43 47.9747 128.538 47.8314 128.634 47.7062L128.662 47.5778C128.718 47.314 128.737 47.0864 128.717 46.8948C128.71 46.8619 128.72 46.824 128.746 46.7811C128.773 46.7383 128.817 46.702 128.88 46.6722C128.942 46.6425 129.025 46.623 129.127 46.6128C129.23 46.603 129.353 46.6112 129.499 46.6376C129.657 46.6706 129.752 46.7662 129.785 46.9246C129.818 47.083 129.812 47.2776 129.766 47.5086C129.719 47.7394 129.644 47.9952 129.538 48.2754C129.433 48.5559 129.32 48.8379 129.202 49.1216C129.083 49.4054 128.966 49.6791 128.85 49.943C128.735 50.2068 128.641 50.4378 128.568 50.6356C128.496 50.8337 128.459 50.9853 128.459 51.091C128.459 51.1964 128.512 51.2329 128.618 51.1997C128.737 51.1667 128.888 51.048 129.073 50.8435C129.258 50.6389 129.461 50.3951 129.682 50.1113C129.903 49.8275 130.137 49.524 130.384 49.2007C130.631 48.8775 130.876 48.5775 131.116 48.3002C131.357 48.0232 131.59 47.7922 131.814 47.6074C132.038 47.4228 132.24 47.3239 132.418 47.3107C132.655 47.2974 132.814 47.3601 132.893 47.4988C132.972 47.6372 132.998 47.8204 132.972 48.048C132.946 48.2755 132.878 48.5394 132.769 48.8398C132.66 49.14 132.536 49.4466 132.398 49.76C132.26 50.0734 132.121 50.3803 131.983 50.6804C131.844 50.9804 131.727 51.2476 131.631 51.4818C131.536 51.7161 131.478 51.9059 131.458 52.0509C131.438 52.1961 131.481 52.2687 131.587 52.2687C131.646 52.2687 131.768 52.1863 131.953 52.0214C132.137 51.8565 132.358 51.6403 132.616 51.3733C132.873 51.106 133.153 50.8057 133.457 50.4726C133.76 50.1394 134.06 49.8014 134.357 49.4583L134.429 49.375C134.52 49.136 134.624 48.8898 134.743 48.6369C134.908 48.2872 135.101 47.9688 135.322 47.6821C135.543 47.395 135.791 47.1575 136.065 46.9696C136.338 46.7814 136.64 46.6874 136.97 46.6874C137.306 46.6874 137.56 46.7237 137.732 46.7963C137.904 46.8689 138.016 46.9217 138.069 46.9547C138.101 46.9744 138.12 47.0042 138.123 47.0436C138.126 47.0833 138.118 47.1196 138.098 47.1526C138.079 47.1856 138.052 47.2101 138.019 47.2267C137.986 47.2432 137.947 47.2351 137.9 47.2021C137.795 47.1226 137.701 47.0781 137.618 47.0685C137.536 47.0585 137.438 47.0602 137.326 47.0732C137.168 47.0997 137.006 47.1872 136.841 47.3356C136.676 47.484 136.515 47.672 136.356 47.8998C136.198 48.1274 136.048 48.3829 135.906 48.6667C135.764 48.9502 135.636 49.2391 135.52 49.5326C135.405 49.826 135.309 50.1115 135.233 50.3885C135.157 50.6655 135.104 50.9115 135.075 51.1258C135.045 51.3402 135.043 51.5116 135.07 51.6404C135.096 51.7691 135.159 51.8334 135.258 51.8334C135.383 51.8334 135.522 51.7937 135.673 51.7147C135.825 51.6356 135.977 51.5333 136.129 51.408C136.28 51.2826 136.431 51.1374 136.579 50.9725C136.727 50.8075 136.868 50.6393 137 50.4677C137.132 50.2963 137.25 50.1247 137.356 49.9531C137.461 49.7815 137.547 49.6232 137.613 49.478C137.732 48.9173 137.883 48.3401 138.068 47.7463C138.253 47.1527 138.461 46.5704 138.692 45.9996C138.923 45.4289 139.173 44.8913 139.444 44.3866C139.714 43.8818 139.998 43.4398 140.295 43.0606C140.592 42.6811 140.897 42.3811 141.21 42.16C141.524 41.9389 141.839 41.8319 142.155 41.8384C142.3 41.8449 142.411 41.8829 142.487 41.9522C142.563 42.0214 142.617 42.099 142.65 42.1849C142.683 42.2837 142.699 42.3992 142.699 42.5312C142.653 42.9203 142.531 43.3344 142.333 43.7731C142.135 44.2117 141.888 44.6373 141.591 45.0496C141.294 45.462 140.963 45.8429 140.597 46.1926C140.23 46.5421 139.859 46.8194 139.483 47.0239C139.312 47.499 139.15 47.9739 138.998 48.4488C138.847 48.924 138.711 49.3774 138.593 49.8096C138.474 50.2418 138.377 50.6426 138.301 51.0121C138.225 51.3813 138.179 51.698 138.162 51.9619C138.146 52.2257 138.161 52.4305 138.207 52.5754C138.253 52.7206 138.339 52.7801 138.464 52.7535C138.603 52.7273 138.764 52.6349 138.949 52.4765C139.134 52.3182 139.33 52.1171 139.538 51.8728C139.746 51.6287 139.96 51.355 140.181 51.0514C140.402 50.7479 140.616 50.4379 140.824 50.1212C141.032 49.8044 141.232 49.4961 141.423 49.196C141.614 48.8957 141.781 48.6269 141.923 48.3895C142.064 48.1538 142.178 47.9603 142.267 47.809C142.261 47.7215 142.255 47.6347 142.249 47.5483C142.226 47.172 142.221 46.8158 142.235 46.4794C142.248 46.1429 142.297 45.8444 142.383 45.5837C142.469 45.3232 142.599 45.1105 142.774 44.9454C142.949 44.7805 143.188 44.6815 143.491 44.6486C143.63 44.6286 143.742 44.6453 143.828 44.6981C143.914 44.751 143.978 44.8168 144.021 44.8959C144.064 44.9751 144.089 45.0576 144.095 45.1434C144.102 45.2292 144.095 45.2951 144.075 45.3412ZM141.426 52.6942C141.672 52.648 141.868 52.5507 142.013 52.4023C142.16 52.2539 142.271 52.0658 142.348 51.8382C142.424 51.6104 142.47 51.3499 142.487 51.0565C142.503 50.7629 142.502 50.451 142.482 50.1212C142.242 50.22 142.02 50.329 141.815 50.4477C141.609 50.5664 141.431 50.6983 141.283 50.8435C141.132 50.9886 141.015 51.1518 140.928 51.3333C140.842 51.5147 140.796 51.7177 140.789 51.9419C140.783 52.1925 140.837 52.3906 140.954 52.5357C141.07 52.6809 141.228 52.7339 141.426 52.6942ZM143.511 44.9553C143.267 44.9819 143.115 45.1318 143.056 45.4056C142.996 45.6796 142.986 46.0307 143.026 46.4594C143.151 46.3145 143.275 46.151 143.397 45.9696C143.519 45.7882 143.626 45.5854 143.719 45.3612C143.726 45.348 143.735 45.3182 143.749 45.272C143.762 45.2259 143.767 45.178 143.763 45.1285C143.76 45.0791 143.742 45.0361 143.709 44.9999C143.676 44.9637 143.61 44.9488 143.511 44.9553ZM142.155 42.2042C142.017 42.1847 141.85 42.2917 141.655 42.5259C141.461 42.7602 141.251 43.08 141.027 43.4857C140.803 43.8916 140.572 44.3648 140.334 44.9057C140.097 45.4468 139.866 46.0109 139.642 46.5979C139.985 46.3737 140.316 46.0868 140.636 45.7371C140.956 45.3873 141.242 45.0195 141.492 44.6336C141.743 44.2476 141.947 43.8634 142.106 43.4806C142.264 43.098 142.356 42.7617 142.383 42.4712C142.396 42.3131 142.32 42.2242 142.155 42.2042ZM119.266 42.5012C119.127 42.5209 118.975 42.6282 118.81 42.8228C118.645 43.0174 118.474 43.2714 118.296 43.5849C118.118 43.8982 117.935 44.2611 117.746 44.6733C117.558 45.0857 117.372 45.5194 117.187 45.9748C117.451 45.9287 117.715 45.8578 117.979 45.7621C118.243 45.6662 118.492 45.5343 118.726 45.3664C118.96 45.1982 119.17 44.9934 119.354 44.7528C119.539 44.5118 119.688 44.2234 119.8 43.8868C119.833 43.7814 119.858 43.6428 119.874 43.4713C119.891 43.2995 119.884 43.1381 119.854 42.9864C119.825 42.8346 119.765 42.7094 119.676 42.6103C119.587 42.5113 119.45 42.475 119.265 42.5014L119.266 42.5012ZM102.432 59.5226C102.69 59.4896 102.934 59.364 103.165 59.1463C103.396 58.9286 103.613 58.6467 103.818 58.3002C104.022 57.9539 104.217 57.5532 104.402 57.098C104.586 56.6426 104.766 56.1562 104.941 55.6382C105.116 55.1203 105.286 54.5877 105.451 54.0401C105.616 53.4926 105.784 52.9482 105.955 52.4071C105.302 52.8228 104.672 53.2384 104.065 53.6541C103.458 54.0698 102.919 54.5003 102.447 54.9455C101.976 55.3909 101.593 55.8544 101.299 56.336C101.006 56.8176 100.846 57.3322 100.819 57.8798C100.799 58.2161 100.84 58.495 100.943 58.716C101.045 58.9371 101.177 59.1117 101.339 59.2406C101.5 59.3692 101.678 59.4533 101.873 59.4929C102.068 59.5326 102.254 59.5421 102.432 59.5226ZM94.7923 44.0945C94.7858 44.088 94.8236 44.0466 94.9061 43.9707C94.9886 43.8948 95.0958 43.824 95.2277 43.758C95.3596 43.6921 95.5082 43.6523 95.6731 43.6393C95.8381 43.6261 95.9996 43.6756 96.158 43.7876C96.1974 43.8141 96.1911 43.8636 96.1382 43.9361C96.0853 44.0085 96.0096 44.0928 95.9107 44.1885C95.8117 44.2841 95.6963 44.3882 95.5644 44.5001C95.4325 44.6123 95.3071 44.721 95.1881 44.8267C95.0696 44.9324 94.9656 45.0278 94.8765 45.1138C94.7875 45.1995 94.7364 45.2686 94.7233 45.3214C94.6505 45.3281 94.5813 45.2935 94.5152 45.2174C94.4493 45.1417 94.39 45.0426 94.3371 44.9206C94.2844 44.7987 94.24 44.6651 94.2035 44.52C94.1673 44.3746 94.1459 44.2378 94.1393 44.1091C94.1326 43.9805 94.1409 43.8702 94.1639 43.7777C94.1871 43.6854 94.235 43.6293 94.3076 43.6095C94.3603 43.5963 94.4165 43.616 94.4757 43.6689C94.5352 43.7218 94.5897 43.7795 94.6392 43.8422C94.6885 43.9049 94.7281 43.9641 94.7578 44.0203C94.7875 44.0763 94.799 44.101 94.7923 44.0945ZM89.5377 46.9148C89.3462 46.9148 89.1401 46.971 88.9191 47.083C88.698 47.1952 88.4637 47.3502 88.2164 47.5482C87.9689 47.746 87.7134 47.9819 87.4496 48.2557C87.1857 48.5295 86.9218 48.8279 86.6579 49.1514C86.6183 49.4283 86.5769 49.707 86.5342 49.9875C86.4914 50.2678 86.4434 50.5467 86.3907 50.8238C86.496 50.6522 86.6479 50.5037 86.8458 50.3784C87.0437 50.253 87.2712 50.1425 87.5286 50.0468C87.7858 49.9514 88.0696 49.8638 88.3797 49.7846C88.6897 49.7054 89.013 49.6197 89.3494 49.5273C89.4881 49.204 89.6035 48.8859 89.6957 48.5724C89.7881 48.2591 89.8476 47.9803 89.8738 47.736C89.9004 47.492 89.8873 47.294 89.8343 47.1424C89.7814 46.9905 89.6828 46.9148 89.5377 46.9148ZM82.917 57.5135C83.0557 57.5135 83.2025 57.4195 83.3575 57.2314C83.5126 57.0435 83.6659 56.7894 83.8178 56.4695C83.9694 56.1495 84.1213 55.7733 84.2731 55.3412C84.4246 54.9091 84.5683 54.4472 84.7036 53.9558C84.8387 53.4641 84.9641 52.9546 85.0795 52.4268C85.1951 51.8991 85.299 51.3777 85.3912 50.8633C85.0482 51.3647 84.7215 51.8792 84.4115 52.4069C84.1014 52.9347 83.8228 53.4445 83.5753 53.936C83.328 54.4275 83.1167 54.8925 82.942 55.3314C82.7669 55.77 82.645 56.1511 82.5758 56.4746C82.5064 56.7976 82.4967 57.0535 82.5461 57.2413C82.5956 57.4294 82.7192 57.5202 82.917 57.5135ZM87.1329 52.0311C87.311 52.0244 87.4924 51.96 87.6772 51.8381C87.8621 51.716 88.0435 51.556 88.2216 51.3582C88.3997 51.1601 88.5696 50.9341 88.7311 50.6803C88.8927 50.4262 89.0429 50.1607 89.1814 49.8836C88.7987 49.9825 88.4443 50.0732 88.1175 50.1557C87.791 50.2381 87.5073 50.3371 87.2665 50.4525C87.0257 50.5681 86.836 50.7081 86.6974 50.8732C86.5587 51.0381 86.4863 51.2492 86.4796 51.5067C86.4796 51.5527 86.4863 51.6072 86.4993 51.6699C86.5126 51.7324 86.5407 51.7918 86.5834 51.848C86.6262 51.9042 86.6923 51.9504 86.7815 51.9867C86.8706 52.0228 86.9878 52.0377 87.1329 52.0311ZM84.9756 42.4418C84.9096 42.4548 84.8172 42.5358 84.6985 42.684C84.5798 42.8327 84.4445 43.0307 84.2926 43.278C84.141 43.5253 83.9776 43.814 83.8029 44.1437C83.628 44.4737 83.4499 44.8316 83.2685 45.2175C83.0871 45.6036 82.9041 46.0076 82.7193 46.4299C82.5345 46.8521 82.3564 47.2777 82.185 47.7064C82.3761 47.6207 82.5856 47.5004 82.8134 47.3453C83.041 47.1902 83.2718 47.0055 83.5061 46.7911C83.7404 46.5768 83.968 46.3376 84.189 46.0738C84.4099 45.81 84.6111 45.5262 84.7926 45.2227C84.974 44.9191 85.1274 44.5992 85.2528 44.2629C85.3782 43.9262 85.4573 43.5799 85.4903 43.2237C85.4903 43.1973 85.487 43.1362 85.4806 43.0405C85.4739 42.9449 85.4557 42.8478 85.426 42.7487C85.3963 42.6497 85.3452 42.5673 85.2725 42.5012C85.2001 42.4353 85.101 42.4154 84.9756 42.4418ZM78.5235 46.9939C78.2596 47.0205 77.984 47.1753 77.697 47.4591C77.41 47.7427 77.1411 48.0859 76.8903 48.4883C77.1346 48.5081 77.3819 48.5114 77.6327 48.498C77.8833 48.485 78.1126 48.4439 78.3205 48.3745C78.5281 48.3053 78.7016 48.2046 78.84 48.0726C78.9784 47.9407 79.0643 47.7659 79.0973 47.5483C79.1171 47.4096 79.1087 47.3024 79.0725 47.2266C79.0363 47.1509 78.9868 47.0947 78.9241 47.0584C78.8614 47.0221 78.7938 47.0008 78.7213 46.994C78.6487 46.9875 78.5827 46.9874 78.5235 46.9939Z" fill="#E31E24" stroke="#E31E24" stroke-width="0.288077" stroke-miterlimit="22.9256"></path><path d="M90.7701 8.18515V17.4668H90.0034C89.4248 15.0322 88.3556 13.1624 86.7817 11.8642C85.2077 10.5663 83.4255 9.92049 81.4348 9.92049C79.7737 9.92049 78.2467 10.398 76.8546 11.3597C75.4689 12.3214 74.4535 13.5792 73.8078 15.1329C72.9807 17.1239 72.5702 19.3364 72.5702 21.7713C72.5702 24.1656 72.8729 26.3515 73.4715 28.3221C74.0769 30.2862 75.0185 31.7793 76.3031 32.7814C77.5879 33.7902 79.2558 34.2946 81.3005 34.2946C82.9818 34.2946 84.5151 33.9247 85.9142 33.1917C87.3064 32.4517 88.7794 31.1873 90.3262 29.3847V31.6851C88.8332 33.2522 87.2729 34.3889 85.6518 35.0951C84.031 35.8013 82.141 36.151 79.9753 36.151C77.1235 36.151 74.5948 35.5793 72.3886 34.436C70.1759 33.2925 68.4675 31.6449 67.2705 29.506C66.0664 27.3606 65.4678 25.0806 65.4678 22.6592C65.4678 20.1102 66.1338 17.6889 67.4654 15.4021C68.7971 13.1154 70.5928 11.34 72.8594 10.0753C75.1192 8.81774 77.5205 8.18537 80.0695 8.18537C81.946 8.18537 83.9233 8.59556 86.0081 9.40967C87.2189 9.88698 87.9855 10.1224 88.3086 10.1224C88.7324 10.1224 89.0954 9.96776 89.4048 9.6583C89.7143 9.34906 89.9094 8.85797 90.0035 8.18537L90.7701 8.18515ZM104.537 32.8014C102.291 34.7925 100.267 35.7877 98.4844 35.7877C97.4285 35.7877 96.5542 35.4448 95.8548 34.752C95.1618 34.0659 94.8123 33.1983 94.8123 32.1626C94.8123 30.7569 95.4177 29.4923 96.628 28.3693C97.8387 27.2458 100.475 25.7529 104.537 23.8899V22.0402C104.537 20.6547 104.464 19.7804 104.309 19.4171C104.161 19.0607 103.872 18.7446 103.448 18.4757C103.024 18.2065 102.547 18.0721 102.022 18.0721C101.161 18.0721 100.455 18.2605 99.9036 18.6438C99.5606 18.8792 99.3925 19.1548 99.3925 19.4711C99.3925 19.7467 99.5741 20.0832 99.944 20.4933C100.442 21.0582 100.69 21.6031 100.69 22.1276C100.69 22.7666 100.455 23.3184 99.9709 23.7689C99.4933 24.2194 98.8678 24.4483 98.0944 24.4483C97.2671 24.4483 96.5744 24.1994 96.0162 23.7016C95.4579 23.204 95.1754 22.6187 95.1754 21.9529C95.1754 21.0045 95.5521 20.1034 96.2987 19.2425C97.052 18.3882 98.0944 17.7293 99.4328 17.2652C100.778 16.8078 102.17 16.579 103.616 16.579C105.365 16.579 106.75 16.949 107.766 17.6888C108.788 18.4288 109.447 19.2291 109.75 20.0967C109.931 20.6482 110.026 21.9127 110.026 23.8901V31.0261C110.026 31.8599 110.059 32.3915 110.126 32.6066C110.194 32.8219 110.288 32.9833 110.422 33.091C110.557 33.1918 110.705 33.2454 110.873 33.2454C111.223 33.2454 111.573 33.0102 111.936 32.5391L112.527 32.9965C111.869 33.9718 111.189 34.6847 110.483 35.1219C109.783 35.5659 108.983 35.7879 108.089 35.7879C107.039 35.7879 106.212 35.5389 105.62 35.0479C105.028 34.5501 104.672 33.8036 104.537 32.8014ZM104.537 31.3487V25.2149C102.95 26.1496 101.767 27.145 100.986 28.2076C100.475 28.9141 100.22 29.6336 100.22 30.3533C100.22 30.9586 100.435 31.4901 100.872 31.9475C101.202 32.304 101.659 32.4786 102.251 32.4786C102.91 32.4786 103.67 32.1019 104.537 31.3487ZM122.172 17.1035L122.186 21.3003C123.396 19.3971 124.466 18.1325 125.381 17.5138C126.295 16.8884 127.176 16.5789 128.024 16.5789C128.757 16.5789 129.349 16.8076 129.786 17.2581C130.223 17.7089 130.445 18.3479 130.445 19.1751C130.445 20.0495 130.23 20.7356 129.806 21.2199C129.383 21.7041 128.871 21.9462 128.266 21.9462C127.573 21.9462 126.975 21.7242 126.47 21.2803C125.959 20.8295 125.657 20.5808 125.569 20.5337C125.435 20.453 125.287 20.4126 125.119 20.4126C124.742 20.4126 124.379 20.554 124.043 20.8432C123.504 21.2937 123.101 21.9326 122.825 22.7602C122.408 24.0312 122.2 25.4369 122.2 26.9772L122.213 31.2077V32.3174C122.213 33.0707 122.26 33.5549 122.354 33.7702C122.509 34.1266 122.745 34.3889 123.054 34.5502C123.37 34.7184 123.895 34.8193 124.634 34.8597V35.5458H114.627V34.8597C115.434 34.7925 115.978 34.5705 116.261 34.2005C116.543 33.8238 116.685 32.8352 116.685 31.2278V21.018C116.685 19.9488 116.631 19.2693 116.523 18.9734C116.395 18.5967 116.2 18.3277 115.952 18.1529C115.703 17.978 115.259 17.857 114.627 17.7897V17.1035H122.172ZM147.347 25.6586H137.218C137.339 28.1003 137.991 30.0306 139.175 31.4497C140.083 32.5391 141.173 33.084 142.451 33.084C143.244 33.084 143.957 32.8622 144.603 32.4249C145.248 31.9878 145.941 31.1941 146.674 30.0575L147.347 30.5013C146.351 32.5257 145.242 33.9651 144.038 34.8059C142.827 35.6465 141.428 36.0702 139.834 36.0702C137.104 36.0702 135.032 35.0212 133.626 32.9227C132.496 31.2345 131.932 29.1361 131.932 26.6273C131.932 23.5603 132.766 21.1188 134.427 19.3029C136.088 17.4869 138.039 16.5789 140.272 16.5789C142.135 16.5789 143.755 17.3389 145.127 18.8657C146.5 20.3925 147.239 22.6591 147.347 25.6586ZM142.504 24.3673C142.504 22.2556 142.39 20.8028 142.161 20.0159C141.926 19.2291 141.57 18.6302 141.085 18.2269C140.81 17.9917 140.44 17.8705 139.975 17.8705C139.296 17.8705 138.738 18.2065 138.301 18.8726C137.527 20.0429 137.137 21.6436 137.137 23.6813V24.3674L142.504 24.3673Z" fill="#0D9CAA"></path></g></g><defs><clipPath id="clip0_27_247"><rect width="148" height="60" fill="white"></rect></clipPath></defs></svg>